<svg width="27" height="27" viewBox="0 0 27 27" fill="none" xmlns="http://www.w3.org/2000/svg">
<path opacity="0.3" d="M20.25 3.375C19.6533 3.375 19.081 3.61205 18.659 4.03401C18.2371 4.45597 18 5.02826 18 5.625C18 6.22174 18.2371 6.79403 18.659 7.21599C19.081 7.63795 19.6533 7.875 20.25 7.875C20.8467 7.875 21.419 7.63795 21.841 7.21599C22.2629 6.79403 22.5 6.22174 22.5 5.625C22.5 5.02826 22.2629 4.45597 21.841 4.03401C21.419 3.61205 20.8467 3.375 20.25 3.375ZM20.25 19.125C19.6533 19.125 19.081 19.3621 18.659 19.784C18.2371 20.206 18 20.7783 18 21.375C18 21.9717 18.2371 22.544 18.659 22.966C19.081 23.3879 19.6533 23.625 20.25 23.625C20.8467 23.625 21.419 23.3879 21.841 22.966C22.2629 22.544 22.5 21.9717 22.5 21.375C22.5 20.7783 22.2629 20.206 21.841 19.784C21.419 19.3621 20.8467 19.125 20.25 19.125ZM6.75 11.25C6.15326 11.25 5.58097 11.4871 5.15901 11.909C4.73705 12.331 4.5 12.9033 4.5 13.5C4.5 14.0967 4.73705 14.669 5.15901 15.091C5.58097 15.5129 6.15326 15.75 6.75 15.75C7.34674 15.75 7.91903 15.5129 8.34099 15.091C8.76295 14.669 9 14.0967 9 13.5C9 12.9033 8.76295 12.331 8.34099 11.909C7.91903 11.4871 7.34674 11.25 6.75 11.25Z" fill="url(#paint0_linear)" fill-opacity="0.5"/>
<path d="M20.25 9C18.3375 9 16.875 7.5375 16.875 5.625C16.875 3.7125 18.3375 2.25 20.25 2.25C22.1625 2.25 23.625 3.7125 23.625 5.625C23.625 7.5375 22.1625 9 20.25 9ZM20.25 4.5C19.575 4.5 19.125 4.95 19.125 5.625C19.125 6.3 19.575 6.75 20.25 6.75C20.925 6.75 21.375 6.3 21.375 5.625C21.375 4.95 20.925 4.5 20.25 4.5ZM20.25 24.75C18.3375 24.75 16.875 23.2875 16.875 21.375C16.875 19.4625 18.3375 18 20.25 18C22.1625 18 23.625 19.4625 23.625 21.375C23.625 23.2875 22.1625 24.75 20.25 24.75ZM20.25 20.25C19.575 20.25 19.125 20.7 19.125 21.375C19.125 22.05 19.575 22.5 20.25 22.5C20.925 22.5 21.375 22.05 21.375 21.375C21.375 20.7 20.925 20.25 20.25 20.25ZM6.75 16.875C4.8375 16.875 3.375 15.4125 3.375 13.5C3.375 11.5875 4.8375 10.125 6.75 10.125C8.6625 10.125 10.125 11.5875 10.125 13.5C10.125 15.4125 8.6625 16.875 6.75 16.875ZM6.75 12.375C6.075 12.375 5.625 12.825 5.625 13.5C5.625 14.175 6.075 14.625 6.75 14.625C7.425 14.625 7.875 14.175 7.875 13.5C7.875 12.825 7.425 12.375 6.75 12.375Z" fill="url(#paint1_linear)" fill-opacity="0.5"/>
<path d="M8.17041 11.3655L17.7921 5.75593L18.9253 7.6997L9.30366 13.3093L8.17041 11.3655Z" fill="url(#paint2_linear)" fill-opacity="0.5"/>
<path d="M8.1709 15.6221L9.30446 13.6785L18.9252 19.2896L17.7917 21.2332L8.1709 15.6221Z" fill="url(#paint3_linear)" fill-opacity="0.5"/>
<defs>
<linearGradient id="paint0_linear" x1="22.5" y1="25.4659" x2="1.3839" y2="10.5468" gradientUnits="userSpaceOnUse">
<stop stop-color="#2D3134"/>
<stop offset="0.234375" stop-color="#57636E"/>
<stop offset="0.442708" stop-color="#EBEFF3"/>
<stop offset="0.682292" stop-color="#AFBBC7"/>
<stop offset="1" stop-color="#768BA2"/>
</linearGradient>
<linearGradient id="paint1_linear" x1="23.625" y1="26.7955" x2="0.0667159" y2="9.94283" gradientUnits="userSpaceOnUse">
<stop stop-color="#2D3134"/>
<stop offset="0.234375" stop-color="#57636E"/>
<stop offset="0.442708" stop-color="#EBEFF3"/>
<stop offset="0.682292" stop-color="#AFBBC7"/>
<stop offset="1" stop-color="#768BA2"/>
</linearGradient>
<linearGradient id="paint2_linear" x1="19.0283" y1="7.87641" x2="15.6462" y2="4.43514" gradientUnits="userSpaceOnUse">
<stop stop-color="#2D3134"/>
<stop offset="0.234375" stop-color="#57636E"/>
<stop offset="0.442708" stop-color="#EBEFF3"/>
<stop offset="0.682292" stop-color="#AFBBC7"/>
<stop offset="1" stop-color="#768BA2"/>
</linearGradient>
<linearGradient id="paint3_linear" x1="19.7998" y1="19.7997" x2="17.3213" y2="22.8199" gradientUnits="userSpaceOnUse">
<stop stop-color="#2D3134"/>
<stop offset="0.234375" stop-color="#57636E"/>
<stop offset="0.442708" stop-color="#EBEFF3"/>
<stop offset="0.682292" stop-color="#AFBBC7"/>
<stop offset="1" stop-color="#768BA2"/>
</linearGradient>
</defs>
</svg>
